<svg width="329" height="134" viewBox="0 0 329 134" fill="none" xmlns="http://www.w3.org/2000/svg">
<path d="M228.195 3.98005L258.523 16.2213C267.188 19.7186 264.686 32.6034 255.341 32.6034H194.685C185.341 32.6034 182.838 19.7186 191.503 16.2213L221.832 3.98005C223.873 3.15627 226.154 3.15627 228.195 3.98005Z" fill="#FF0202" stroke="black" stroke-width="5"/>
<path d="M111.46 3.98005L141.788 16.2213C150.453 19.7186 147.951 32.6034 138.607 32.6034H77.9503C68.6062 32.6034 66.1039 19.7186 74.7689 16.2213L105.097 3.98005C107.138 3.15627 109.419 3.15627 111.46 3.98005Z" fill="#FF0202" stroke="black" stroke-width="5"/>
<path d="M192.911 36.6585C192.911 41.9555 190.085 46.9322 185.158 50.6672C180.23 54.4035 173.31 56.7872 165.563 56.7872C157.816 56.7872 150.896 54.4035 145.968 50.6672C141.041 46.9322 138.215 41.9555 138.215 36.6585C138.215 31.3615 141.041 26.3849 145.968 22.6498C150.896 18.9135 157.816 16.5299 165.563 16.5299C173.31 16.5299 180.23 18.9135 185.158 22.6498C190.085 26.3849 192.911 31.3615 192.911 36.6585Z" fill="#FF0202" stroke="black" stroke-width="5"/>
<rect x="10.7404" y="49.4091" width="305.293" height="81.6464" fill="#FFC702" stroke="black" stroke-width="5"/>
<rect x="2.65662" y="30.429" width="323.326" height="17.4352" fill="#FFC702" stroke="black" stroke-width="5"/>
</svg>
