<svg width="329" height="51" viewBox="0 0 329 51" fill="none" xmlns="http://www.w3.org/2000/svg">
<path d="M221.832 3.98005C223.873 3.15627 226.154 3.15627 228.195 3.98005L258.523 16.2213C267.188 19.7186 264.686 32.6034 255.341 32.6034H194.685C185.341 32.6034 182.838 19.7186 191.503 16.2213L221.832 3.98005Z" fill="#FF0202" stroke="black" stroke-width="5"/>
<path d="M105.097 3.98005C107.138 3.15627 109.419 3.15627 111.46 3.98005L141.788 16.2213C150.453 19.7186 147.951 32.6034 138.607 32.6034H77.9503C68.6062 32.6034 66.1039 19.7186 74.7689 16.2213L105.097 3.98005Z" fill="#FF0202" stroke="black" stroke-width="5"/>
<path d="M192.5 32C192.5 35.7682 189.986 39.5863 185.057 42.5938C180.172 45.5748 173.264 47.5 165.5 47.5C157.736 47.5 150.828 45.5748 145.943 42.5938C141.014 39.5863 138.5 35.7682 138.5 32C138.5 28.2318 141.014 24.4137 145.943 21.4062C150.828 18.4252 157.736 16.5 165.5 16.5C173.264 16.5 180.172 18.4252 185.057 21.4062C189.986 24.4137 192.5 28.2318 192.5 32Z" fill="#FF0202" stroke="black" stroke-width="5"/>
<rect x="2.65662" y="30.429" width="323.326" height="17.4352" fill="#2B891C" stroke="black" stroke-width="5"/>
</svg>
