<svg width="147" height="70" viewBox="0 0 147 70" fill="none" xmlns="http://www.w3.org/2000/svg">
<path d="M34.0705 22.0625V15H43.8733V18.5H38.8874V22.0625H34.0705Z" fill="#2B891C"/>
<path d="M34.0705 44V36.9375H43.8733V40.4374H38.8874V44H34.0705Z" fill="#2B891C"/>
<path d="M53.676 15V22.0625H43.8732V18.5625H48.8591V15L53.676 15Z" fill="#FF0202"/>
<path d="M53.676 36.9375V44H43.8732V40.5H48.8591V36.9375H53.676Z" fill="#FF0202"/>
<path d="M48.8591 26H43.8733V33.125H59V26H53.8451V29.5624H48.8591V26Z" fill="#2B891C"/>
<path d="M38.9718 25.8125H29V33.1875H38.9718V25.8125Z" fill="#FF0202"/>
<path fill-rule="evenodd" clip-rule="evenodd" d="M106.067 24.8183C107.008 25.952 107.519 27.3287 107.506 28.717C107.506 30.0821 106.995 31.4473 106.067 32.5578L108.03 33.8419C109.281 32.361 109.966 30.5565 109.966 28.7285C109.98 26.7966 109.24 24.8993 107.882 23.3722L106.757 24.2443L106.067 24.8183Z" fill="#2B891C"/>
<path fill-rule="evenodd" clip-rule="evenodd" d="M109.778 34.9792L103.177 30.6641C103.648 30.1319 103.916 29.4841 103.957 28.8131C103.984 28.1421 103.782 27.4827 103.365 26.9158L106.525 24.4633L109.832 21.8025C110.047 21.6289 110.06 21.3281 109.845 21.143L109.388 20.7497C107.035 18.702 103.863 17.5104 100.528 17.4179L100.542 15.8561C100.555 15.752 100.542 15.6479 100.515 15.5437C100.475 15.4396 100.421 15.3471 100.34 15.2661C100.26 15.1851 100.165 15.1273 100.045 15.081C99.9369 15.0347 99.8159 15.0116 99.6949 15.0116C99.574 15.0116 99.453 15.0347 99.3455 15.081C99.2379 15.1273 99.1303 15.1851 99.0497 15.2661C98.9689 15.3471 98.9017 15.4396 98.8749 15.5322C98.8346 15.6363 98.8211 15.7404 98.8479 15.8445L98.8346 17.4526C98.0413 17.522 97.2481 17.6492 96.4818 17.8459L96.4952 15.8445C96.5087 15.7404 96.4952 15.6363 96.4684 15.5322C96.4281 15.428 96.3742 15.3355 96.2936 15.2545C96.213 15.1735 96.1188 15.1157 95.9979 15.0694C95.8903 15.0231 95.7692 15 95.6483 15C95.5273 15 95.4062 15.0231 95.2988 15.0694C95.1912 15.1157 95.0837 15.1735 95.0029 15.2545C94.9223 15.3355 94.855 15.428 94.8282 15.5206C94.7878 15.6247 94.7744 15.7288 94.8013 15.833L94.761 18.3896C92.0453 19.4308 89.8136 21.2471 88.4557 23.5262C87.0979 25.8052 86.6676 28.4198 87.2592 30.9301C87.8507 33.4406 89.4237 35.7081 91.7092 37.3508C93.9947 38.9936 96.8717 39.9191 99.8428 39.9654L109.455 40C109.751 40 109.993 39.7918 109.993 39.5372V35.361C109.993 35.2107 109.912 35.0718 109.778 34.9792ZM100.031 37.9523C97.6649 37.9409 95.3659 37.2582 93.4972 36.0204C91.6285 34.7709 90.2841 33.0241 89.6791 31.0574C89.0741 29.0908 89.2489 26.9967 90.1497 25.1227C91.0638 23.2485 92.6637 21.6752 94.7207 20.6571L94.7071 23.6997C94.6938 23.8038 94.7072 23.9079 94.7341 24.012C94.7744 24.1162 94.8282 24.2087 94.9089 24.2897C94.9895 24.3707 95.0837 24.4285 95.2046 24.4748C95.3122 24.5211 95.4331 24.5442 95.5542 24.5442C95.6752 24.5442 95.7961 24.5211 95.9037 24.4748C96.0112 24.4285 96.1188 24.3707 96.1994 24.2897C96.2801 24.2087 96.3473 24.1162 96.3742 24.0236C96.4146 23.9196 96.4281 23.8154 96.4012 23.7113L96.4146 19.9746C97.5977 19.6044 98.8479 19.4308 100.112 19.4308C102.438 19.4308 104.696 20.0902 106.538 21.2934C106.672 21.3859 106.686 21.5479 106.565 21.652L101.537 25.6201C101.08 25.4582 100.582 25.3656 100.085 25.3656C99.5336 25.3656 98.9824 25.4582 98.4716 25.6548C97.9607 25.8515 97.5169 26.1407 97.1539 26.4993C96.7911 26.8579 96.5221 27.286 96.3608 27.7373C96.1994 28.1999 96.1591 28.6742 96.2398 29.1486C96.3205 29.6229 96.5087 30.0741 96.8045 30.479C97.1002 30.8839 97.5035 31.2194 97.9607 31.4855C98.4312 31.7399 98.9555 31.9135 99.5067 31.9829C100.058 32.0524 100.623 32.0176 101.147 31.8788L107.573 36.0783C107.64 36.1246 107.681 36.1939 107.681 36.2633L107.667 37.7441C107.667 37.8714 107.546 37.9755 107.398 37.9755L100.031 37.9523ZM101.604 28.6974C101.604 28.9519 101.51 29.2065 101.349 29.4262C101.174 29.6461 100.945 29.808 100.663 29.9121C100.381 30.0162 100.071 30.0393 99.7891 29.9816C99.5067 29.9237 99.2244 29.808 99.0092 29.623C98.7942 29.4378 98.6462 29.2064 98.5925 28.9519C98.5388 28.6974 98.5656 28.4312 98.6867 28.1999C98.8077 27.957 98.9958 27.7604 99.2513 27.6099C99.5067 27.471 99.8024 27.3901 100.098 27.3901C100.501 27.3901 100.891 27.529 101.174 27.7835C101.443 28.0148 101.604 28.3388 101.604 28.6974Z" fill="#FF0202"/>
<path d="M20.576 48.992C19.84 48.992 19.184 48.672 18.608 48.032C13.456 41.76 10.88 35.04 10.88 27.872C10.88 24.096 11.648 20.512 13.184 17.12C14.72 13.696 16.8 10.752 19.424 8.288C20.032 7.712 20.608 7.424 21.152 7.424C21.76 7.424 22.288 7.664 22.736 8.144C23.216 8.592 23.456 9.136 23.456 9.776C23.456 10.512 23.168 11.104 22.592 11.552C20.544 13.184 18.848 15.52 17.504 18.56C16.16 21.6 15.488 24.704 15.488 27.872C15.488 31.232 16.144 34.464 17.456 37.568C18.8 40.672 20.368 43.152 22.16 45.008C22.64 45.488 22.88 46.064 22.88 46.736C22.88 47.344 22.64 47.872 22.16 48.32C21.68 48.768 21.152 48.992 20.576 48.992Z" fill="black"/>
<path d="M129.56 47.992C128.984 47.992 128.456 47.768 127.976 47.32C127.496 46.872 127.256 46.344 127.256 45.736C127.256 45.064 127.496 44.488 127.976 44.008C129.768 42.152 131.32 39.672 132.632 36.568C133.976 33.464 134.648 30.232 134.648 26.872C134.648 23.704 133.976 20.6 132.632 17.56C131.288 14.52 129.592 12.184 127.544 10.552C126.968 10.104 126.68 9.512 126.68 8.776C126.68 8.136 126.904 7.592 127.352 7.144C127.832 6.664 128.376 6.424 128.984 6.424C129.528 6.424 130.104 6.712 130.712 7.288C133.336 9.752 135.416 12.696 136.952 16.12C138.488 19.512 139.256 23.096 139.256 26.872C139.256 34.04 136.68 40.76 131.528 47.032C130.952 47.672 130.296 47.992 129.56 47.992Z" fill="black"/>
<path d="M68.408 49.32C67.8 49.32 67.288 49.112 66.872 48.696C66.488 48.312 66.296 47.848 66.296 47.304C66.296 47.048 66.344 46.792 66.44 46.536L67.304 44.28C67.048 43.832 66.92 43.336 66.92 42.792C66.92 41.992 67.208 41.288 67.784 40.68C68.36 40.072 69.016 39.768 69.752 39.768C70.456 39.768 71.048 40.008 71.528 40.488C72.008 40.968 72.248 41.544 72.248 42.216C72.248 43.112 71.704 44.856 70.616 47.448C70.36 48.056 70.072 48.52 69.752 48.84C69.432 49.16 68.984 49.32 68.408 49.32Z" fill="black"/>
<path d="M6.422 67.091C6.11 67.091 5.90633 66.9437 5.811 66.649L4.875 63.945L2.223 64.53L1.378 66.662C1.326 66.7833 1.248 66.883 1.144 66.961C1.04867 67.039 0.927333 67.078 0.78 67.078C0.606667 67.078 0.455 67.0173 0.325 66.896C0.195 66.7747 0.13 66.6317 0.13 66.467C0.13 66.3543 0.160333 66.2243 0.221 66.077L0.741 64.777C0.689 64.7597 0.65 64.7423 0.624 64.725C0.398667 64.6123 0.286 64.4217 0.286 64.153C0.286 63.997 0.329333 63.8627 0.416 63.75C0.511333 63.6373 0.632667 63.5637 0.78 63.529L1.261 63.425L3.185 58.537C3.237 58.407 3.31933 58.3073 3.432 58.238C3.54467 58.1687 3.666 58.134 3.796 58.134C3.93467 58.134 4.056 58.1687 4.16 58.238C4.264 58.3073 4.342 58.4157 4.394 58.563L6.981 66.064C6.98967 66.0813 7.007 66.1333 7.033 66.22C7.059 66.298 7.072 66.3803 7.072 66.467C7.072 66.6317 7.01133 66.779 6.89 66.909C6.76867 67.0303 6.61267 67.091 6.422 67.091ZM4.446 62.736L3.744 60.643L2.769 63.1L4.446 62.736ZM14.5106 67.091C14.3633 67.091 14.2463 67.0563 14.1596 66.987C14.073 66.9177 13.9993 66.8093 13.9386 66.662L11.7936 61.436C11.7676 61.358 11.7546 61.2713 11.7546 61.176C11.7546 61.02 11.8153 60.8857 11.9366 60.773C12.0666 60.6517 12.2183 60.591 12.3916 60.591C12.669 60.591 12.864 60.7297 12.9766 61.007L14.5106 64.881L16.0576 60.968C16.101 60.8467 16.1746 60.7513 16.2786 60.682C16.3913 60.6127 16.5126 60.578 16.6426 60.578C16.8246 60.578 16.972 60.6387 17.0846 60.76C17.206 60.8813 17.2666 61.0243 17.2666 61.189C17.2666 61.2583 17.245 61.3493 17.2016 61.462L15.0956 66.701C15.0436 66.831 14.97 66.9307 14.8746 67C14.788 67.0607 14.6666 67.091 14.5106 67.091ZM20.8313 67.078C20.2159 67.078 19.6613 66.948 19.1673 66.688C18.6819 66.4193 18.3006 66.0423 18.0233 65.557C17.7459 65.063 17.6073 64.4823 17.6073 63.815C17.6073 63.269 17.7286 62.749 17.9713 62.255C18.2226 61.7523 18.5693 61.3493 19.0113 61.046C19.4619 60.7427 19.9733 60.591 20.5453 60.591C21.0739 60.591 21.5246 60.6993 21.8973 60.916C22.2786 61.124 22.5646 61.3753 22.7553 61.67C22.9459 61.9647 23.0413 62.229 23.0413 62.463C23.0413 62.5757 23.0066 62.684 22.9373 62.788C22.8679 62.892 22.7683 62.983 22.6383 63.061L19.1543 65.063C19.2756 65.3317 19.4879 65.5397 19.7913 65.687C20.1033 65.8343 20.4499 65.908 20.8313 65.908C21.3339 65.908 21.7629 65.7217 22.1183 65.349C22.2569 65.2103 22.3999 65.141 22.5473 65.141C22.7206 65.141 22.8636 65.1973 22.9763 65.31C23.0976 65.4227 23.1583 65.5613 23.1583 65.726C23.1583 65.8647 23.1063 65.9947 23.0023 66.116C22.7596 66.3847 22.4346 66.6143 22.0273 66.805C21.6286 66.987 21.2299 67.078 20.8313 67.078ZM21.7543 62.307C21.6503 62.125 21.5029 61.9907 21.3123 61.904C21.1216 61.8087 20.8963 61.761 20.6363 61.761C20.1423 61.761 19.7263 61.93 19.3883 62.268C19.0589 62.606 18.8683 63.022 18.8163 63.516C18.7989 63.646 18.7903 63.802 18.7903 63.984L21.7543 62.307ZM25.046 67.078C24.8814 67.078 24.734 67.0173 24.604 66.896C24.474 66.7747 24.409 66.636 24.409 66.48V61.215C24.409 61.0417 24.4697 60.8943 24.591 60.773C24.721 60.6517 24.8727 60.591 25.046 60.591C25.2194 60.591 25.3667 60.6517 25.488 60.773C25.618 60.8943 25.683 61.0417 25.683 61.215V61.605C26.1077 60.9117 26.6884 60.565 27.425 60.565C27.867 60.565 28.1834 60.6863 28.374 60.929C28.5734 61.1717 28.673 61.462 28.673 61.8V62.19C28.673 62.3633 28.6124 62.5107 28.491 62.632C28.3784 62.7447 28.2354 62.801 28.062 62.801C27.854 62.801 27.698 62.7403 27.594 62.619C27.4987 62.4977 27.451 62.3503 27.451 62.177V62.008C27.451 61.8693 27.3557 61.8 27.165 61.8C27.009 61.8 26.827 61.878 26.619 62.034C26.4197 62.19 26.255 62.3547 26.125 62.528C25.943 62.7533 25.8217 62.9787 25.761 63.204C25.709 63.4293 25.683 63.698 25.683 64.01L25.67 66.48C25.67 66.636 25.605 66.7747 25.475 66.896C25.345 67.0173 25.202 67.078 25.046 67.078ZM30.5492 69.405C30.3932 69.405 30.2589 69.34 30.1462 69.21C30.0335 69.0887 29.9772 68.9413 29.9772 68.768C29.9772 68.69 29.9989 68.599 30.0422 68.495L31.1732 66.064L28.8462 61.527C28.7942 61.423 28.7682 61.319 28.7682 61.215C28.7682 61.0417 28.8289 60.8943 28.9502 60.773C29.0802 60.643 29.2362 60.578 29.4182 60.578C29.5569 60.578 29.6782 60.617 29.7822 60.695C29.8862 60.773 29.9642 60.864 30.0162 60.968L31.8492 64.595L33.4872 60.968C33.5392 60.8553 33.6172 60.76 33.7212 60.682C33.8339 60.604 33.9552 60.565 34.0852 60.565C34.2412 60.565 34.3755 60.6257 34.4882 60.747C34.6009 60.8683 34.6572 61.02 34.6572 61.202C34.6572 61.306 34.6399 61.3927 34.6052 61.462L31.1342 69.002C31.0822 69.1233 31.0042 69.2187 30.9002 69.288C30.7962 69.366 30.6792 69.405 30.5492 69.405ZM40.8641 67.078C40.6994 67.078 40.5521 67.0173 40.4221 66.896C40.3007 66.7747 40.2401 66.636 40.2401 66.48V61.202C40.2401 61.0287 40.3051 60.8813 40.4351 60.76C40.5651 60.6387 40.7167 60.578 40.8901 60.578C41.0547 60.578 41.1934 60.6387 41.3061 60.76C41.4274 60.8813 41.4881 61.0287 41.4881 61.202V62.19C41.7307 61.67 42.0384 61.2757 42.4111 61.007C42.7837 60.7297 43.1911 60.591 43.6331 60.591C44.1184 60.591 44.5041 60.7037 44.7901 60.929C45.0761 61.1543 45.2841 61.527 45.4141 62.047C45.5441 62.5583 45.6091 63.269 45.6091 64.179L45.5961 66.454C45.5961 66.6187 45.5397 66.766 45.4271 66.896C45.3144 67.0173 45.1714 67.078 44.9981 67.078C44.8334 67.078 44.6861 67.0173 44.5561 66.896C44.4347 66.766 44.3741 66.623 44.3741 66.467V64.309C44.3741 63.633 44.3437 63.113 44.2831 62.749C44.2224 62.385 44.1314 62.138 44.0101 62.008C43.8887 61.8693 43.7241 61.8 43.5161 61.8C43.2561 61.8 42.9961 61.9127 42.7361 62.138C42.4761 62.3547 42.2334 62.6667 42.0081 63.074C41.8087 63.4293 41.6701 63.776 41.5921 64.114C41.5141 64.452 41.4751 64.8593 41.4751 65.336V66.428C41.4751 66.6187 41.4187 66.7747 41.3061 66.896C41.2021 67.0173 41.0547 67.078 40.8641 67.078ZM49.5607 67.078C49.0667 67.078 48.6117 66.9437 48.1957 66.675C47.7883 66.4063 47.4677 66.0423 47.2337 65.583C46.9997 65.115 46.8827 64.608 46.8827 64.062C46.8827 63.4467 47.0213 62.8747 47.2987 62.346C47.576 61.8087 47.9487 61.384 48.4167 61.072C48.8847 60.7513 49.3873 60.591 49.9247 60.591C50.4187 60.591 50.8693 60.7297 51.2767 61.007C51.6927 61.2843 52.0177 61.6527 52.2517 62.112C52.4943 62.5713 52.6157 63.0653 52.6157 63.594C52.6157 64.218 52.477 64.7987 52.1997 65.336C51.9223 65.8647 51.5453 66.2893 51.0687 66.61C50.6007 66.922 50.098 67.078 49.5607 67.078ZM49.5607 65.908C49.864 65.908 50.1543 65.804 50.4317 65.596C50.709 65.388 50.93 65.1107 51.0947 64.764C51.2593 64.4173 51.3417 64.049 51.3417 63.659C51.3417 63.3297 51.2767 63.022 51.1467 62.736C51.0167 62.4413 50.839 62.2073 50.6137 62.034C50.3883 61.852 50.1413 61.761 49.8727 61.761C49.5693 61.761 49.2833 61.8693 49.0147 62.086C48.7547 62.294 48.5467 62.5757 48.3907 62.931C48.2347 63.2777 48.1567 63.6503 48.1567 64.049C48.1567 64.439 48.2217 64.7727 48.3517 65.05C48.4903 65.3273 48.6637 65.5397 48.8717 65.687C49.0883 65.8343 49.318 65.908 49.5607 65.908ZM55.7955 67.117C55.3275 67.117 54.9548 67.0173 54.6775 66.818C54.4002 66.61 54.1922 66.2373 54.0535 65.7C53.9148 65.1627 53.8455 64.3913 53.8455 63.386C53.8455 63.048 53.8585 62.6753 53.8845 62.268C53.9105 61.8607 53.9452 61.5183 53.9885 61.241C54.0232 61.0243 54.0882 60.8597 54.1835 60.747C54.2788 60.6343 54.4175 60.578 54.5995 60.578C54.7728 60.578 54.9202 60.63 55.0415 60.734C55.1628 60.838 55.2235 60.9897 55.2235 61.189L55.1975 61.553C55.1108 62.2897 55.0675 62.996 55.0675 63.672C55.0675 64.556 55.1412 65.1583 55.2885 65.479C55.4445 65.791 55.6568 65.947 55.9255 65.947C56.2375 65.947 56.5582 65.8647 56.8875 65.7C57.2168 65.5267 57.4508 65.362 57.5895 65.206C57.6415 65.154 57.6675 65.0457 57.6675 64.881L57.6935 61.176C57.6935 61.0027 57.7542 60.8597 57.8755 60.747C58.0055 60.6343 58.1485 60.578 58.3045 60.578C58.4692 60.578 58.6122 60.6343 58.7335 60.747C58.8635 60.8597 58.9285 61.0027 58.9285 61.176V66.454C58.9285 66.6187 58.8635 66.766 58.7335 66.896C58.6122 67.0173 58.4692 67.078 58.3045 67.078C58.1312 67.078 57.9752 67.026 57.8365 66.922C57.7065 66.8093 57.6415 66.6707 57.6415 66.506V66.363C57.3122 66.597 57.0045 66.7833 56.7185 66.922C56.4412 67.052 56.1335 67.117 55.7955 67.117ZM61.367 67.078C61.2023 67.078 61.055 67.0173 60.925 66.896C60.8037 66.7747 60.743 66.636 60.743 66.48V61.202C60.743 61.0287 60.808 60.8813 60.938 60.76C61.068 60.6387 61.2197 60.578 61.393 60.578C61.5577 60.578 61.6963 60.6387 61.809 60.76C61.9303 60.8813 61.991 61.0287 61.991 61.202V62.19C62.2337 61.67 62.5413 61.2757 62.914 61.007C63.2867 60.7297 63.694 60.591 64.136 60.591C64.6213 60.591 65.007 60.7037 65.293 60.929C65.579 61.1543 65.787 61.527 65.917 62.047C66.047 62.5583 66.112 63.269 66.112 64.179L66.099 66.454C66.099 66.6187 66.0427 66.766 65.93 66.896C65.8173 67.0173 65.6743 67.078 65.501 67.078C65.3363 67.078 65.189 67.0173 65.059 66.896C64.9377 66.766 64.877 66.623 64.877 66.467V64.309C64.877 63.633 64.8467 63.113 64.786 62.749C64.7253 62.385 64.6343 62.138 64.513 62.008C64.3917 61.8693 64.227 61.8 64.019 61.8C63.759 61.8 63.499 61.9127 63.239 62.138C62.979 62.3547 62.7363 62.6667 62.511 63.074C62.3117 63.4293 62.173 63.776 62.095 64.114C62.017 64.452 61.978 64.8593 61.978 65.336V66.428C61.978 66.6187 61.9217 66.7747 61.809 66.896C61.705 67.0173 61.5577 67.078 61.367 67.078ZM68.5036 60.045C68.3389 60.045 68.1916 59.98 68.0616 59.85C67.9403 59.72 67.8839 59.5727 67.8926 59.408L67.9056 58.927C67.9143 58.7623 67.9793 58.6193 68.1006 58.498C68.2219 58.3767 68.3649 58.316 68.5296 58.316C68.6943 58.316 68.8373 58.381 68.9586 58.511C69.0886 58.641 69.1493 58.784 69.1406 58.94L69.1276 59.434C69.1189 59.6073 69.0539 59.7547 68.9326 59.876C68.8199 59.9887 68.6769 60.045 68.5036 60.045ZM68.4386 67.078C68.2653 67.078 68.1136 67.0173 67.9836 66.896C67.8623 66.766 67.8016 66.6143 67.8016 66.441L67.8666 61.267C67.8666 61.0937 67.9273 60.9463 68.0486 60.825C68.1786 60.695 68.3303 60.63 68.5036 60.63C68.6856 60.63 68.8373 60.695 68.9586 60.825C69.0799 60.9463 69.1406 61.0937 69.1406 61.267L69.0756 66.441C69.0756 66.6143 69.0106 66.766 68.8806 66.896C68.7593 67.0173 68.6119 67.078 68.4386 67.078ZM72.8347 67.078C72.3321 67.078 71.8944 66.9697 71.5217 66.753C71.1577 66.5277 70.8761 66.272 70.6767 65.986C70.4861 65.6913 70.3907 65.453 70.3907 65.271C70.3907 65.0977 70.4514 64.9547 70.5727 64.842C70.6941 64.7207 70.8371 64.66 71.0017 64.66C71.1491 64.66 71.2704 64.699 71.3657 64.777C71.4697 64.855 71.5434 64.959 71.5867 65.089C71.6821 65.3577 71.8381 65.57 72.0547 65.726C72.2714 65.882 72.5401 65.96 72.8607 65.96C73.1987 65.96 73.4631 65.8777 73.6537 65.713C73.8444 65.5483 73.9397 65.362 73.9397 65.154C73.9397 64.9547 73.8574 64.7987 73.6927 64.686C73.5367 64.5647 73.2161 64.4303 72.7307 64.283C72.0201 64.0663 71.5087 63.8107 71.1967 63.516C70.8847 63.2127 70.7287 62.8183 70.7287 62.333C70.7287 61.8217 70.9324 61.4057 71.3397 61.085C71.7471 60.7557 72.3147 60.591 73.0427 60.591C73.7187 60.591 74.2431 60.7383 74.6157 61.033C74.9971 61.3277 75.1877 61.722 75.1877 62.216C75.1877 62.4847 75.1314 62.6927 75.0187 62.84C74.9061 62.9787 74.7457 63.048 74.5377 63.048C74.3557 63.048 74.2084 62.9917 74.0957 62.879C73.9831 62.7663 73.9267 62.645 73.9267 62.515C73.9267 62.4717 73.9354 62.4197 73.9527 62.359C73.9787 62.2897 73.9917 62.2377 73.9917 62.203C73.9917 62.047 73.9137 61.9213 73.7577 61.826C73.6104 61.7307 73.3807 61.683 73.0687 61.683C72.6787 61.683 72.3884 61.7393 72.1977 61.852C72.0157 61.9647 71.9247 62.1163 71.9247 62.307C71.9247 62.5063 72.0201 62.671 72.2107 62.801C72.4014 62.9223 72.7437 63.061 73.2377 63.217C73.9571 63.4423 74.4554 63.6893 74.7327 63.958C75.0187 64.2267 75.1617 64.6037 75.1617 65.089C75.1617 65.4183 75.0621 65.739 74.8627 66.051C74.6721 66.3543 74.3991 66.6013 74.0437 66.792C73.6971 66.9827 73.2941 67.078 72.8347 67.078ZM77.1092 67.091C76.9445 67.091 76.7972 67.0303 76.6672 66.909C76.5459 66.779 76.4852 66.6317 76.4852 66.467V58.979C76.4852 58.8057 76.5459 58.6583 76.6672 58.537C76.7972 58.407 76.9532 58.342 77.1352 58.342C77.3085 58.342 77.4515 58.407 77.5642 58.537C77.6769 58.6583 77.7332 58.8057 77.7332 58.979V61.774C78.0192 61.41 78.3442 61.1197 78.7082 60.903C79.0722 60.6777 79.4362 60.565 79.8002 60.565C80.4849 60.565 80.9659 60.9117 81.2432 61.605C81.5205 62.2897 81.6592 63.3773 81.6592 64.868C81.6592 65.7087 81.6462 66.2503 81.6202 66.493C81.6115 66.6577 81.5465 66.7963 81.4252 66.909C81.3125 67.0217 81.1739 67.078 81.0092 67.078C80.8272 67.078 80.6799 67.0217 80.5672 66.909C80.4545 66.7877 80.3982 66.6403 80.3982 66.467C80.3982 66.2937 80.4025 66.1507 80.4112 66.038L80.4242 64.959C80.4242 63.7023 80.3549 62.8617 80.2162 62.437C80.0862 62.0123 79.9215 61.8 79.7222 61.8C79.4709 61.8 79.2152 61.917 78.9552 62.151C78.6952 62.3763 78.4699 62.632 78.2792 62.918C78.0972 63.1953 77.9672 63.4163 77.8892 63.581C77.7852 63.815 77.7332 64.1227 77.7332 64.504V66.441C77.7332 66.6403 77.6725 66.8007 77.5512 66.922C77.4299 67.0347 77.2825 67.091 77.1092 67.091ZM90.2101 69.262C89.7075 69.262 89.1961 69.2013 88.6761 69.08C88.5375 69.0453 88.4205 68.9717 88.3251 68.859C88.2385 68.7463 88.1951 68.6163 88.1951 68.469C88.1951 68.2957 88.2558 68.1483 88.3771 68.027C88.5071 67.9057 88.6545 67.845 88.8191 67.845C88.9231 67.845 89.0618 67.8667 89.2351 67.91C89.2698 67.9187 89.3781 67.936 89.5601 67.962C89.7421 67.9967 89.9545 68.014 90.1971 68.014C91.0898 68.014 91.5708 67.5677 91.6401 66.675L91.6661 66.363C91.5188 66.5623 91.3238 66.714 91.0811 66.818C90.8385 66.9133 90.5785 66.961 90.3011 66.961C89.8418 66.961 89.4085 66.8483 89.0011 66.623C88.6025 66.389 88.2818 66.0553 88.0391 65.622C87.7965 65.18 87.6751 64.6643 87.6751 64.075C87.6751 63.4597 87.8095 62.8833 88.0781 62.346C88.3555 61.8087 88.7281 61.3797 89.1961 61.059C89.6728 60.7383 90.1971 60.578 90.7691 60.578C91.0898 60.578 91.4495 60.656 91.8481 60.812C91.9175 60.5693 92.1168 60.448 92.4461 60.448C92.6281 60.448 92.7755 60.5 92.8881 60.604C93.0095 60.6993 93.0658 60.8597 93.0571 61.085L92.9271 66.571C92.9098 67.4637 92.6541 68.1353 92.1601 68.586C91.6661 69.0367 91.0161 69.262 90.2101 69.262ZM90.2231 65.739C90.6998 65.739 91.0725 65.57 91.3411 65.232C91.6098 64.8853 91.7441 64.3523 91.7441 63.633V62.06C91.6228 61.9907 91.4755 61.9343 91.3021 61.891C91.1375 61.8477 90.9771 61.826 90.8211 61.826C90.4658 61.826 90.1365 61.9213 89.8331 62.112C89.5385 62.294 89.3001 62.5497 89.1181 62.879C88.9448 63.2083 88.8581 63.5767 88.8581 63.984C88.8581 64.5127 88.9881 64.9373 89.2481 65.258C89.5168 65.5787 89.8418 65.739 90.2231 65.739ZM95.8112 60.045C95.6466 60.045 95.4992 59.98 95.3692 59.85C95.2479 59.72 95.1916 59.5727 95.2002 59.408L95.2132 58.927C95.2219 58.7623 95.2869 58.6193 95.4082 58.498C95.5296 58.3767 95.6726 58.316 95.8372 58.316C96.0019 58.316 96.1449 58.381 96.2662 58.511C96.3962 58.641 96.4569 58.784 96.4482 58.94L96.4352 59.434C96.4266 59.6073 96.3616 59.7547 96.2402 59.876C96.1276 59.9887 95.9846 60.045 95.8112 60.045ZM95.7462 67.078C95.5729 67.078 95.4212 67.0173 95.2912 66.896C95.1699 66.766 95.1092 66.6143 95.1092 66.441L95.1742 61.267C95.1742 61.0937 95.2349 60.9463 95.3562 60.825C95.4862 60.695 95.6379 60.63 95.8112 60.63C95.9932 60.63 96.1449 60.695 96.2662 60.825C96.3876 60.9463 96.4482 61.0937 96.4482 61.267L96.3832 66.441C96.3832 66.6143 96.3182 66.766 96.1882 66.896C96.0669 67.0173 95.9196 67.078 95.7462 67.078ZM99.4014 67.091C99.2367 67.091 99.0894 67.0303 98.9594 66.909C98.838 66.7877 98.7774 66.6447 98.7774 66.48V61.839H97.7504C97.577 61.839 97.4297 61.7783 97.3084 61.657C97.187 61.527 97.1264 61.3797 97.1264 61.215C97.1264 61.0243 97.1914 60.8727 97.3214 60.76C97.4514 60.6387 97.603 60.578 97.7764 60.578H98.7774V59.187C98.7774 59.0223 98.838 58.875 98.9594 58.745C99.0807 58.615 99.228 58.55 99.4014 58.55C99.5834 58.55 99.7307 58.615 99.8434 58.745C99.9647 58.8663 100.025 59.0137 100.025 59.187V60.578H101.13C101.304 60.578 101.451 60.6387 101.572 60.76C101.694 60.8813 101.754 61.033 101.754 61.215C101.754 61.3797 101.694 61.527 101.572 61.657C101.451 61.7783 101.304 61.839 101.13 61.839H100.025V66.48C100.025 66.6447 99.9647 66.7877 99.8434 66.909C99.722 67.0303 99.5747 67.091 99.4014 67.091ZM104.637 67.078C104.117 67.078 103.64 66.9523 103.207 66.701C102.773 66.4497 102.431 66.1073 102.18 65.674C101.928 65.232 101.803 64.751 101.803 64.231C101.803 63.6417 101.941 63.0653 102.219 62.502C102.496 61.9387 102.86 61.4793 103.311 61.124C103.761 60.7687 104.238 60.591 104.741 60.591C105.2 60.591 105.568 60.6647 105.846 60.812C106.132 60.9507 106.409 61.176 106.678 61.488C106.808 61.6267 106.873 61.7783 106.873 61.943C106.873 62.1077 106.812 62.2507 106.691 62.372C106.569 62.4847 106.422 62.541 106.249 62.541C106.136 62.541 106.045 62.5237 105.976 62.489C105.915 62.4543 105.841 62.385 105.755 62.281C105.607 62.1163 105.46 61.9907 105.313 61.904C105.174 61.8173 104.988 61.774 104.754 61.774C104.485 61.774 104.212 61.891 103.935 62.125C103.666 62.359 103.445 62.6667 103.272 63.048C103.107 63.4207 103.025 63.8063 103.025 64.205C103.025 64.5517 103.098 64.855 103.246 65.115C103.402 65.3663 103.601 65.5613 103.844 65.7C104.086 65.83 104.342 65.895 104.611 65.895C104.957 65.895 105.239 65.83 105.456 65.7C105.681 65.57 105.88 65.3923 106.054 65.167C106.218 64.9503 106.405 64.842 106.613 64.842C106.777 64.842 106.92 64.9027 107.042 65.024C107.163 65.1367 107.224 65.2667 107.224 65.414C107.224 65.5873 107.176 65.7347 107.081 65.856C106.829 66.194 106.487 66.4843 106.054 66.727C105.62 66.961 105.148 67.078 104.637 67.078ZM110.587 67.078C110.093 67.078 109.638 66.9437 109.222 66.675C108.815 66.4063 108.494 66.0423 108.26 65.583C108.026 65.115 107.909 64.608 107.909 64.062C107.909 63.4467 108.048 62.8747 108.325 62.346C108.602 61.8087 108.975 61.384 109.443 61.072C109.911 60.7513 110.414 60.591 110.951 60.591C111.445 60.591 111.896 60.7297 112.303 61.007C112.719 61.2843 113.044 61.6527 113.278 62.112C113.521 62.5713 113.642 63.0653 113.642 63.594C113.642 64.218 113.503 64.7987 113.226 65.336C112.949 65.8647 112.572 66.2893 112.095 66.61C111.627 66.922 111.124 67.078 110.587 67.078ZM110.587 65.908C110.89 65.908 111.181 65.804 111.458 65.596C111.735 65.388 111.956 65.1107 112.121 64.764C112.286 64.4173 112.368 64.049 112.368 63.659C112.368 63.3297 112.303 63.022 112.173 62.736C112.043 62.4413 111.865 62.2073 111.64 62.034C111.415 61.852 111.168 61.761 110.899 61.761C110.596 61.761 110.31 61.8693 110.041 62.086C109.781 62.294 109.573 62.5757 109.417 62.931C109.261 63.2777 109.183 63.6503 109.183 64.049C109.183 64.439 109.248 64.7727 109.378 65.05C109.517 65.3273 109.69 65.5397 109.898 65.687C110.115 65.8343 110.344 65.908 110.587 65.908ZM115.743 60.045C115.578 60.045 115.431 59.98 115.301 59.85C115.18 59.72 115.123 59.5727 115.132 59.408L115.145 58.927C115.154 58.7623 115.219 58.6193 115.34 58.498C115.461 58.3767 115.604 58.316 115.769 58.316C115.934 58.316 116.077 58.381 116.198 58.511C116.328 58.641 116.389 58.784 116.38 58.94L116.367 59.434C116.358 59.6073 116.293 59.7547 116.172 59.876C116.059 59.9887 115.916 60.045 115.743 60.045ZM115.678 67.078C115.505 67.078 115.353 67.0173 115.223 66.896C115.102 66.766 115.041 66.6143 115.041 66.441L115.106 61.267C115.106 61.0937 115.167 60.9463 115.288 60.825C115.418 60.695 115.57 60.63 115.743 60.63C115.925 60.63 116.077 60.695 116.198 60.825C116.319 60.9463 116.38 61.0937 116.38 61.267L116.315 66.441C116.315 66.6143 116.25 66.766 116.12 66.896C115.999 67.0173 115.851 67.078 115.678 67.078ZM118.826 67.078C118.661 67.078 118.514 67.0173 118.384 66.896C118.263 66.7747 118.202 66.636 118.202 66.48V61.202C118.202 61.0287 118.267 60.8813 118.397 60.76C118.527 60.6387 118.679 60.578 118.852 60.578C119.017 60.578 119.155 60.6387 119.268 60.76C119.389 60.8813 119.45 61.0287 119.45 61.202V62.19C119.693 61.67 120 61.2757 120.373 61.007C120.746 60.7297 121.153 60.591 121.595 60.591C122.08 60.591 122.466 60.7037 122.752 60.929C123.038 61.1543 123.246 61.527 123.376 62.047C123.506 62.5583 123.571 63.269 123.571 64.179L123.558 66.454C123.558 66.6187 123.502 66.766 123.389 66.896C123.276 67.0173 123.133 67.078 122.96 67.078C122.795 67.078 122.648 67.0173 122.518 66.896C122.397 66.766 122.336 66.623 122.336 66.467V64.309C122.336 63.633 122.306 63.113 122.245 62.749C122.184 62.385 122.093 62.138 121.972 62.008C121.851 61.8693 121.686 61.8 121.478 61.8C121.218 61.8 120.958 61.9127 120.698 62.138C120.438 62.3547 120.195 62.6667 119.97 63.074C119.771 63.4293 119.632 63.776 119.554 64.114C119.476 64.452 119.437 64.8593 119.437 65.336V66.428C119.437 66.6187 119.381 66.7747 119.268 66.896C119.164 67.0173 119.017 67.078 118.826 67.078ZM125.885 67.078C125.72 67.078 125.573 67.0173 125.443 66.896C125.321 66.7747 125.261 66.6317 125.261 66.467V61.215C125.261 61.0503 125.321 60.9073 125.443 60.786C125.573 60.656 125.72 60.591 125.885 60.591C126.058 60.591 126.205 60.656 126.327 60.786C126.448 60.9073 126.509 61.0503 126.509 61.215V62.125C127.046 61.1023 127.761 60.591 128.654 60.591C129.009 60.591 129.317 60.695 129.577 60.903C129.845 61.111 130.036 61.423 130.149 61.839C130.703 61.007 131.379 60.591 132.177 60.591C132.714 60.591 133.139 60.799 133.451 61.215C133.763 61.6223 133.919 62.2377 133.919 63.061V66.467C133.919 66.6317 133.854 66.7747 133.724 66.896C133.602 67.0173 133.459 67.078 133.295 67.078C133.121 67.078 132.974 67.0173 132.853 66.896C132.731 66.7747 132.671 66.6317 132.671 66.467V62.983C132.671 62.5843 132.614 62.2853 132.502 62.086C132.389 61.8867 132.211 61.787 131.969 61.787C131.717 61.787 131.466 61.8867 131.215 62.086C130.963 62.2853 130.755 62.5583 130.591 62.905C130.435 63.2517 130.357 63.633 130.357 64.049V66.467C130.357 66.6403 130.296 66.7877 130.175 66.909C130.053 67.0217 129.906 67.078 129.733 67.078C129.568 67.078 129.421 67.0173 129.291 66.896C129.169 66.7747 129.109 66.6317 129.109 66.467V62.983C129.109 62.567 129.057 62.2637 128.953 62.073C128.857 61.8823 128.697 61.787 128.472 61.787C128.194 61.787 127.921 61.8997 127.653 62.125C127.384 62.3417 127.15 62.606 126.951 62.918C126.795 63.178 126.678 63.438 126.6 63.698C126.53 63.958 126.496 64.244 126.496 64.556L126.509 66.467C126.509 66.6317 126.448 66.7747 126.327 66.896C126.205 67.0173 126.058 67.078 125.885 67.078ZM139.767 67.208C139.594 67.208 139.451 67.1603 139.338 67.065C139.234 66.9697 139.182 66.844 139.182 66.688V66.506C138.827 66.8873 138.333 67.078 137.7 67.078C137.224 67.078 136.795 66.961 136.413 66.727C136.032 66.493 135.733 66.1637 135.516 65.739C135.3 65.3057 135.191 64.816 135.191 64.27C135.191 63.6633 135.321 63.0783 135.581 62.515C135.841 61.943 136.205 61.4793 136.673 61.124C137.15 60.7687 137.696 60.591 138.311 60.591C138.71 60.591 139.07 60.6473 139.39 60.76C139.711 60.864 140.045 60.994 140.391 61.15V66.558C140.391 66.7313 140.331 66.883 140.209 67.013C140.088 67.143 139.941 67.208 139.767 67.208ZM137.791 65.869C138.043 65.869 138.285 65.817 138.519 65.713C138.762 65.609 138.961 65.4833 139.117 65.336L139.156 61.943C138.905 61.839 138.632 61.787 138.337 61.787C137.965 61.787 137.635 61.904 137.349 62.138C137.063 62.3633 136.842 62.6667 136.686 63.048C136.53 63.4207 136.452 63.8193 136.452 64.244C136.452 64.7727 136.569 65.1757 136.803 65.453C137.037 65.7303 137.367 65.869 137.791 65.869ZM144.081 67.078C143.578 67.078 143.14 66.9697 142.768 66.753C142.404 66.5277 142.122 66.272 141.923 65.986C141.732 65.6913 141.637 65.453 141.637 65.271C141.637 65.0977 141.697 64.9547 141.819 64.842C141.94 64.7207 142.083 64.66 142.248 64.66C142.395 64.66 142.516 64.699 142.612 64.777C142.716 64.855 142.789 64.959 142.833 65.089C142.928 65.3577 143.084 65.57 143.301 65.726C143.517 65.882 143.786 65.96 144.107 65.96C144.445 65.96 144.709 65.8777 144.9 65.713C145.09 65.5483 145.186 65.362 145.186 65.154C145.186 64.9547 145.103 64.7987 144.939 64.686C144.783 64.5647 144.462 64.4303 143.977 64.283C143.266 64.0663 142.755 63.8107 142.443 63.516C142.131 63.2127 141.975 62.8183 141.975 62.333C141.975 61.8217 142.178 61.4057 142.586 61.085C142.993 60.7557 143.561 60.591 144.289 60.591C144.965 60.591 145.489 60.7383 145.862 61.033C146.243 61.3277 146.434 61.722 146.434 62.216C146.434 62.4847 146.377 62.6927 146.265 62.84C146.152 62.9787 145.992 63.048 145.784 63.048C145.602 63.048 145.454 62.9917 145.342 62.879C145.229 62.7663 145.173 62.645 145.173 62.515C145.173 62.4717 145.181 62.4197 145.199 62.359C145.225 62.2897 145.238 62.2377 145.238 62.203C145.238 62.047 145.16 61.9213 145.004 61.826C144.856 61.7307 144.627 61.683 144.315 61.683C143.925 61.683 143.634 61.7393 143.444 61.852C143.262 61.9647 143.171 62.1163 143.171 62.307C143.171 62.5063 143.266 62.671 143.457 62.801C143.647 62.9223 143.99 63.061 144.484 63.217C145.203 63.4423 145.701 63.6893 145.979 63.958C146.265 64.2267 146.408 64.6037 146.408 65.089C146.408 65.4183 146.308 65.739 146.109 66.051C145.918 66.3543 145.645 66.6013 145.29 66.792C144.943 66.9827 144.54 67.078 144.081 67.078Z" fill="black"/>
</svg>
